<svg width="11" height="15" viewBox="0 0 11 15" fill="none" xmlns="http://www.w3.org/2000/svg">
<path d="M7.23438 7.21313C7.17361 7.26438 7.11269 7.30715 7.05192 7.33849C6.9921 7.37156 6.93624 7.39944 6.8857 7.42524L10.9397 14.6818H8.93503L5.98922 9.35027L2.95232 14.6818H0.705505L4.86561 7.42524C4.78462 7.37398 4.67304 7.27737 4.53209 7.13677C4.47131 7.08535 4.35973 6.9058 4.19748 6.59708C4.03523 6.2894 3.85058 5.91073 3.64366 5.46228C3.43593 5.01245 3.21277 4.52522 2.97553 3.99851C2.73707 3.47284 2.512 2.96881 2.30017 2.48729C2.08711 2.00681 1.89468 1.57672 1.72327 1.19787C1.55078 0.81955 1.42922 0.546327 1.35848 0.379761H3.1804L5.27534 5.05695C5.3159 5.16014 5.36152 5.24377 5.41219 5.30801C5.46299 5.3719 5.52664 5.42609 5.60175 5.47128C5.67783 5.51596 5.77124 5.53847 5.88269 5.53847C5.98403 5.53847 6.07035 5.51596 6.14137 5.47128C6.21225 5.42609 6.27316 5.3719 6.32383 5.30801C6.37436 5.24377 6.41902 5.16014 6.45959 5.05695L8.57078 0.379761H10.635C10.5641 0.546327 10.4386 0.82232 10.256 1.20688C10.0735 1.59282 9.86634 2.03209 9.63348 2.52608C9.4002 3.02006 9.15478 3.53378 8.89706 4.06621C8.63866 4.59811 8.39623 5.09313 8.16815 5.54816C7.93993 6.00423 7.74026 6.38584 7.56872 6.6937C7.39663 7.0019 7.28519 7.1747 7.23438 7.21313Z" fill="#00AAE8"/>
</svg>
