<svg width="5" height="17" viewBox="0 0 5 17" fill="none" xmlns="http://www.w3.org/2000/svg">
<path d="M2.18603 3.08596V5.78097H4.06805C4.06805 6.06371 4.05084 6.33625 4.01519 6.59891C3.97982 6.86209 3.91686 7.09342 3.82563 7.29219C3.73439 7.49061 3.60751 7.65129 3.44635 7.7737C3.2841 7.8956 3.07105 7.9562 2.80855 7.9562H2.18603V14.4235C2.18603 14.9122 2.09971 15.2962 1.92736 15.5796C1.75486 15.8624 1.4772 16.0025 1.09274 16.0025H0.302924H0.074707V13.6151H0.302924V7.9562H0.074707V5.78097H0.302924V3.62496C0.302924 2.82953 0.424611 2.20689 0.667033 1.75706C0.788586 1.52712 0.950838 1.34099 1.1527 1.19919C1.35538 1.05842 1.68903 0.981197 2.15558 0.968384H4.44827V3.08578H2.18603V3.08596Z" fill="#313E74"/>
</svg>
