<svg width="8" height="12" viewBox="0 0 8 12" fill="none" xmlns="http://www.w3.org/2000/svg">
<path d="M7.90938 3.64881V11.0215H6.07202V4.1885C6.05181 3.93173 5.98079 3.71322 5.85897 3.53314C5.80816 3.4438 5.6287 3.3316 5.32045 3.19672C5.01124 3.06236 4.59851 2.99466 4.08239 2.99466C3.89992 2.99466 3.70325 3.01146 3.49019 3.04297C3.27837 3.07535 3.0806 3.11708 2.89814 3.16833C2.71567 3.21975 2.56448 3.28312 2.44279 3.36034C2.32097 3.43756 2.26033 3.5141 2.26033 3.59132V11.0215H0.362061V3.55236V0.800037L1.45617 0.761596C1.56652 0.722638 1.74612 0.691128 1.99469 0.664983C2.24312 0.639185 2.50876 0.61754 2.79147 0.598321C3.07555 0.578582 3.35321 0.562308 3.62705 0.549322C3.89992 0.537375 4.11776 0.530273 4.28001 0.530273C4.87739 0.530273 5.40362 0.623773 5.85897 0.809559C6.31417 0.995344 6.69454 1.23966 6.99774 1.54128C7.30189 1.84272 7.52902 2.17932 7.6813 2.55175C7.83372 2.92384 7.90938 3.29039 7.90938 3.64881Z" fill="#313E74"/>
</svg>
