<svg width="8" height="12" viewBox="0 0 8 12" fill="none" xmlns="http://www.w3.org/2000/svg">
<path d="M7.95793 3.64881V11.0215H6.12071V4.1885C6.10036 3.93173 6.02907 3.71322 5.90861 3.53314C5.85794 3.4438 5.67766 3.3316 5.36941 3.19672C5.05965 3.06236 4.64842 2.99466 4.13189 2.99466C3.94943 2.99466 3.7518 3.01146 3.5397 3.04297C3.32678 3.07535 3.12915 3.11708 2.94737 3.16833C2.7649 3.21975 2.61303 3.28312 2.49147 3.36034C2.3706 3.43756 2.30969 3.5141 2.30969 3.59132V11.0215H0.411835V3.55236V0.800037L1.50458 0.761596C1.61589 0.722638 1.79549 0.691128 2.04379 0.664983C2.2914 0.639185 2.55731 0.61754 2.84125 0.598321C3.12369 0.578582 3.40285 0.562308 3.67586 0.549322C3.94929 0.537375 4.1674 0.530273 4.32856 0.530273C4.92581 0.530273 5.45217 0.623773 5.90833 0.809559C6.36354 0.995344 6.74282 1.23966 7.04697 1.54128C7.3503 1.84272 7.57839 2.17932 7.73053 2.55175C7.88186 2.92384 7.95793 3.29039 7.95793 3.64881Z" fill="#313E74"/>
</svg>
