<svg width="10" height="17" viewBox="0 0 10 17" fill="none" xmlns="http://www.w3.org/2000/svg">
<path d="M0.214203 8.91907C0.214203 7.80141 0.483121 7.00026 1.01959 6.51251C1.5562 6.02545 2.27486 5.78097 3.17531 5.78097H7.16865V0.968384H9.0665V16.0213H2.2037C1.65726 16.0213 1.24795 15.9441 0.973702 15.791C0.700414 15.611 0.513302 15.4184 0.412235 15.2124C0.28003 14.9954 0.214203 14.7253 0.214203 14.404V8.76445V8.91907ZM3.61658 8.16813C3.23103 8.16813 2.94285 8.24501 2.75055 8.39859C2.53763 8.56516 2.3915 8.74523 2.31051 8.93811C2.21873 9.13013 2.17338 9.36111 2.17338 9.63087V13.8655H7.16865V8.16813H3.61658Z" fill="#313E74"/>
</svg>
