<svg width="8" height="15" viewBox="0 0 8 15" fill="none" xmlns="http://www.w3.org/2000/svg">
<path d="M7.91917 11.5258V12.8344C7.91917 12.989 7.89364 13.1713 7.84297 13.3836C7.79257 13.5943 7.6941 13.796 7.54728 13.9889C7.40115 14.182 7.20338 14.3453 6.95495 14.48C6.70734 14.6148 6.38584 14.6817 5.99168 14.6817H2.58971C2.23529 14.6817 1.93619 14.615 1.69377 14.48C1.45066 14.3451 1.25905 14.169 1.11701 13.9505C0.974972 13.733 0.873498 13.4887 0.812858 13.2189C0.751945 12.95 0.722717 12.6803 0.722717 12.4105V2.03511C0.722717 1.45767 0.828019 1.00264 1.0408 0.668471C1.15211 0.489439 1.30139 0.357327 1.48918 0.273871C1.67547 0.190415 1.93141 0.136568 2.25551 0.110596H2.51309V4.4801H6.74968V6.63611H2.51309V12.4684H6.24899V11.5261H7.91917V11.5258Z" fill="#00AAE8"/>
</svg>
