<svg width="10" height="16" viewBox="0 0 10 16" fill="none" xmlns="http://www.w3.org/2000/svg">
<path d="M0.595245 8.59929C0.595245 7.48164 0.863756 6.68049 1.40036 6.19274C1.93697 5.70551 2.65563 5.46102 3.55608 5.46102H7.55024V0.648438H9.44741V15.7016H2.58447C2.03844 15.7016 1.62871 15.6243 1.35461 15.4711C1.08186 15.291 0.894483 15.0987 0.793007 14.8926C0.661211 14.6757 0.595387 14.4054 0.595387 14.0842V8.4445V8.59929H0.595245ZM3.99721 7.84836C3.61207 7.84836 3.32389 7.92524 3.13119 8.07882C2.91826 8.24538 2.77213 8.42528 2.69114 8.61834C2.59977 8.81036 2.55402 9.04116 2.55402 9.3111V13.5457H7.55011V7.84836H3.99721Z" fill="#00AAE8"/>
</svg>
