<svg width="9" height="16" viewBox="0 0 9 16" fill="none" xmlns="http://www.w3.org/2000/svg">
<path d="M8.41786 0.800293V13.1776C8.41786 13.7042 8.26571 14.1789 7.96224 14.6019C7.64798 15.0005 7.22309 15.1996 6.68649 15.1996H1.22017V12.9666H6.64114V3.30277H2.02515V8.50043H6.51918C6.50934 8.93641 6.46837 9.34694 6.3979 9.73237C6.32674 10.1169 6.22145 10.3927 6.079 10.5598C5.80571 10.867 5.38574 11.0216 4.81881 11.0216H0.279022V3.22606C0.279022 2.66109 0.435408 2.12815 0.749669 1.62845C0.901815 1.37115 1.10135 1.17896 1.34869 1.05032C1.59712 0.922707 1.8883 0.838558 2.22195 0.800293H8.41786Z" fill="#313E74"/>
</svg>
