<svg width="10" height="11" viewBox="0 0 10 11" fill="none" xmlns="http://www.w3.org/2000/svg">
<path d="M7.83218 0.422291C8.06546 0.422291 8.29271 0.493453 8.51533 0.634567C8.67772 0.724776 8.83492 0.897749 8.98598 1.154C9.0671 1.28265 9.12501 1.47554 9.1612 1.73145C9.19616 1.98822 9.21433 2.23219 9.21433 2.46264V10.7018H2.15363C1.72888 10.7018 1.38867 10.613 1.13655 10.4329C0.882925 10.2398 0.700461 10.0407 0.589835 9.83519C0.468146 9.59227 0.392075 9.30277 0.361755 8.97015V6.08104C0.361755 5.58134 0.458041 5.20302 0.64952 4.94625C0.822289 4.68999 1.03494 4.49745 1.2876 4.36915C1.58179 4.22752 1.89495 4.15012 2.22943 4.13783H7.57474V2.59735H1.72887V0.422119L7.83218 0.422291ZM7.57474 8.50733V6.29332H2.30591V8.50733H7.57474Z" fill="#00AAE8"/>
</svg>
