<svg width="29" height="37" viewBox="0 0 29 37" fill="none" xmlns="http://www.w3.org/2000/svg">
<path d="M0 0.30249V36.0093H15.8354L15.8335 28.7647H12.3985V33.5413H1.94689V24.1677C2.49674 23.8572 3.13346 23.52 3.13346 23.52C3.00604 16.9404 5.89885 16.3999 5.89885 16.3999C5.89885 16.3999 4.28234 18.9882 4.4099 21.9009C4.5376 24.8139 5.00551 24.8677 4.4099 26.6477C3.81416 28.4273 3.34597 28.6426 3.94185 29.29C4.53746 29.9371 6.15384 31.5013 6.79192 31.9322C7.43041 32.3637 8.62163 32.3106 8.9617 31.3394C9.30191 30.3687 8.96157 29.8834 10.9609 26.8629C12.9606 23.8429 14.0239 22.6556 14.0239 20.9302C14.0239 20.9302 17.4861 21.6408 20.5242 18.698C22.6978 16.5929 22.8299 14.9982 22.8299 14.9982C22.8299 14.9982 20.4053 17.5863 17.5549 16.7236C14.7049 15.861 14.1812 13.7031 12.3797 11.3849C10.5784 9.06574 5.04785 5.1826 5.04785 5.1826L1.94675 2.8086V2.7712H26.2181V36.0095H28.165V0.30249H0ZM11.4983 16.0575C12.0116 14.6414 13.0076 14.6029 13.0076 14.6029C14.0339 19.1189 20.0108 17.7795 20.0108 17.7795C17.475 20.5351 14.7281 19.1951 14.7281 19.1951L15.2712 19.8844C12.3735 20.2667 10.9849 17.4732 11.4983 16.0575Z" fill="#313E74"/>
</svg>
