<svg width="12" height="16" viewBox="0 0 12 16" fill="none" xmlns="http://www.w3.org/2000/svg">
<path d="M5.5712 0.437134C6.32005 0.437134 7.02874 0.630018 7.69701 1.01509C8.35449 1.40017 8.94231 1.92619 9.45829 2.59349C9.70099 2.94013 9.92128 3.30599 10.1189 3.69089C10.3161 4.07579 10.4855 4.49308 10.6275 4.94135C10.9209 5.83998 11.0676 6.79626 11.0676 7.8102C11.0676 8.82363 10.921 9.77367 10.6275 10.6593C10.4855 11.1083 10.3163 11.5259 10.1189 11.9105C9.92128 12.295 9.70099 12.655 9.45829 12.9892C8.94217 13.6435 8.35449 14.1692 7.69701 14.5662C7.01864 14.9391 6.30981 15.1254 5.5712 15.1254C4.81212 15.1254 4.09332 14.9391 3.41494 14.5662C3.08129 14.362 2.77194 14.1307 2.48909 13.8734C2.20502 13.6175 1.93187 13.3218 1.66868 12.9892C1.42571 12.655 1.20842 12.295 1.01626 11.9105C0.82355 11.5259 0.656792 11.1083 0.514753 10.6593C0.221251 9.77367 0.074707 8.82363 0.074707 7.8102C0.074707 6.79643 0.221251 5.84015 0.514753 4.94135C0.656792 4.49308 0.82355 4.07579 1.01626 3.69089C1.20842 3.30581 1.42585 2.94013 1.66868 2.59349C1.93187 2.25984 2.20502 1.96186 2.48909 1.69816C2.77194 1.43601 3.08129 1.20711 3.41494 1.01509C4.08307 0.630018 4.80201 0.437134 5.5712 0.437134ZM5.5865 12.8735C6.11286 12.8735 6.61929 12.7578 7.10495 12.5265C7.30735 12.3464 7.50198 12.1704 7.68963 11.9965C7.87674 11.8246 8.06617 11.6211 8.25902 11.3912C8.44094 11.1469 8.595 10.9002 8.72187 10.6494C8.84862 10.3998 8.97276 10.1276 9.09391 9.83185C9.18514 9.49768 9.25589 9.16697 9.30642 8.84007C9.35709 8.51266 9.38249 8.16948 9.38249 7.81037C9.38249 7.43846 9.35709 7.08836 9.30642 6.76146C9.25589 6.43404 9.18514 6.10385 9.09391 5.76968C8.97276 5.47533 8.84862 5.20228 8.72187 4.95208C8.595 4.70154 8.44094 4.44806 8.25902 4.19076C8.06617 3.94784 7.87674 3.72933 7.68963 3.53645C7.50198 3.34443 7.30735 3.18461 7.10495 3.05596C6.61929 2.82464 6.11286 2.70898 5.5865 2.70898C5.06014 2.70898 4.54852 2.82464 4.05275 3.05596C3.85062 3.18461 3.65286 3.3446 3.4607 3.53645C3.26853 3.7295 3.07582 3.94784 2.88366 4.19076C2.70161 4.44806 2.547 4.70154 2.42067 4.95208C2.29407 5.20211 2.17032 5.47533 2.04864 5.76968C1.9574 6.10385 1.88638 6.43404 1.83626 6.76146C1.78545 7.08836 1.76005 7.43846 1.76005 7.81037C1.76005 8.16948 1.78545 8.51266 1.83626 8.84007C1.88638 9.16697 1.9574 9.49768 2.04864 9.83185C2.17046 10.1276 2.29407 10.3998 2.42067 10.6494C2.547 10.9 2.70161 11.1469 2.88366 11.3912C3.07582 11.6211 3.26853 11.8246 3.4607 11.9965C3.65286 12.1704 3.85048 12.3464 4.05275 12.5265C4.54852 12.7578 5.06014 12.8735 5.5865 12.8735Z" fill="#00AAE8"/>
</svg>
