<svg width="10" height="11" viewBox="0 0 10 11" fill="none" xmlns="http://www.w3.org/2000/svg">
<path d="M9.12002 8.50724V10.7015H2.45388C2.3031 10.7015 2.16803 10.6885 2.0514 10.6626C1.93599 10.6371 1.82154 10.5935 1.71105 10.5277C1.60957 10.4648 1.51479 10.4006 1.43011 10.3362C1.34366 10.2718 1.25966 10.1753 1.17853 10.0472C1.09754 9.93154 1.0294 9.77449 0.973404 9.5752C0.918091 9.37695 0.890503 9.16762 0.890503 8.95015V2.19383C0.890503 1.87212 0.946083 1.58989 1.05794 1.34645C1.15819 1.12794 1.32563 0.929172 1.5589 0.749273C1.79095 0.569721 2.13607 0.479858 2.59114 0.479858H8.89221V4.50273C8.92253 5.19635 8.7809 5.69674 8.46732 6.00477C8.14405 6.29946 7.56155 6.44733 6.72106 6.44733H2.6974V7.7944C2.6974 7.93604 2.7228 8.05793 2.77361 8.16078C2.82428 8.25099 2.89516 8.33063 2.98571 8.40128C3.07654 8.47175 3.22377 8.5069 3.42644 8.5069H9.12002V8.50724ZM2.6974 4.13791C2.6974 4.2018 2.71447 4.25011 2.75012 4.28145C2.78576 4.31452 2.8281 4.33045 2.87986 4.33045H6.91869C6.9695 4.33045 7.01197 4.31452 7.04748 4.28145C7.08272 4.25011 7.10129 4.2018 7.10129 4.13791V2.84849C7.10129 2.79672 7.08272 2.75205 7.04748 2.71309C7.01184 2.67465 6.9695 2.65544 6.91869 2.65544H2.87986C2.8281 2.65544 2.78576 2.67223 2.75012 2.7034C2.71447 2.7356 2.6974 2.77733 2.6974 2.82875V4.13791Z" fill="#00AAE8"/>
</svg>
