<svg width="279" height="86" viewBox="0 0 279 86" fill="none" xmlns="http://www.w3.org/2000/svg">
<path d="M99.5988 6.75781C101.638 6.75781 103.568 7.17358 105.388 8.00364C107.179 8.83369 108.78 9.96755 110.185 11.406C110.846 12.1532 111.446 12.9418 111.984 13.7715C112.521 14.6011 112.982 15.5006 113.369 16.4669C114.168 18.4039 114.568 20.4652 114.568 22.6508C114.568 24.8353 114.169 26.8832 113.369 28.7922C112.982 29.76 112.522 30.6602 111.984 31.4892C111.446 32.3181 110.846 33.094 110.185 33.8144C108.779 35.2248 107.179 36.3579 105.388 37.2137C103.541 38.0176 101.61 38.4192 99.5988 38.4192C97.5315 38.4192 95.5739 38.0176 93.7264 37.2137C92.8177 36.7737 91.9752 36.275 91.2049 35.7204C90.4312 35.1688 89.6873 34.5313 88.9706 33.8144C88.3089 33.094 87.7171 32.3181 87.1938 31.4892C86.6689 30.6602 86.2148 29.76 85.8279 28.7922C85.0286 26.8832 84.6295 24.8353 84.6295 22.6508C84.6295 20.4656 85.0286 18.4043 85.8279 16.4669C86.2148 15.5006 86.6689 14.6011 87.1938 13.7715C87.7171 12.9414 88.3093 12.1532 88.9706 11.406C89.6873 10.6868 90.4312 10.0444 91.2049 9.47601C91.9752 8.91095 92.8177 8.41754 93.7264 8.00364C95.546 7.17358 97.504 6.75781 99.5988 6.75781ZM99.6405 33.565C101.074 33.565 102.453 33.3157 103.776 32.8171C104.327 32.4289 104.857 32.0494 105.368 31.6747C105.878 31.3041 106.394 30.8655 106.919 30.3699C107.414 29.8433 107.834 29.3114 108.179 28.771C108.525 28.2328 108.863 27.6461 109.193 27.0086C109.441 26.2883 109.634 25.5754 109.771 24.8708C109.909 24.165 109.979 23.4253 109.979 22.6512C109.979 21.8495 109.909 21.0949 109.771 20.3902C109.634 19.6844 109.441 18.9727 109.193 18.2524C108.863 17.6179 108.525 17.0293 108.179 16.49C107.834 15.95 107.414 15.4036 106.919 14.849C106.394 14.3253 105.878 13.8543 105.368 13.4385C104.857 13.0246 104.327 12.6801 103.776 12.4028C102.453 11.9042 101.074 11.6549 99.6405 11.6549C98.2069 11.6549 96.8136 11.9042 95.4634 12.4028C94.9129 12.6801 94.3743 13.025 93.851 13.4385C93.3277 13.8547 92.8028 14.3253 92.2795 14.849C91.7837 15.4036 91.3626 15.95 91.0186 16.49C90.6738 17.029 90.3368 17.6179 90.0054 18.2524C89.7569 18.9727 89.5635 19.6844 89.427 20.3902C89.2886 21.0949 89.2194 21.8495 89.2194 22.6512C89.2194 23.4253 89.2886 24.165 89.427 24.8708C89.5635 25.5754 89.7569 26.2883 90.0054 27.0086C90.3371 27.6461 90.6738 28.2328 91.0186 28.771C91.3626 29.311 91.7837 29.8433 92.2795 30.3699C92.8028 30.8655 93.3277 31.3041 93.851 31.6747C94.3743 32.0494 94.9125 32.4289 95.4634 32.8171C96.8136 33.3157 98.2069 33.565 99.6405 33.565Z" fill="#00AAE8"/>
<path d="M134.086 21.3635C133.92 21.4739 133.755 21.5661 133.589 21.6337C133.426 21.705 133.274 21.7651 133.136 21.8207L144.177 37.4625H138.718L130.695 25.9702L122.424 37.4625H116.305L127.635 21.8207C127.414 21.7102 127.11 21.5019 126.726 21.1989C126.561 21.088 126.257 20.701 125.815 20.0355C125.373 19.3723 124.87 18.5561 124.307 17.5894C123.741 16.6198 123.133 15.5695 122.487 14.4342C121.838 13.3011 121.225 12.2146 120.648 11.1767C120.068 10.141 119.544 9.21389 119.077 8.39727C118.607 7.58178 118.276 6.99283 118.083 6.63379H123.045L128.751 16.7157C128.861 16.9381 128.985 17.1184 129.123 17.2569C129.262 17.3946 129.435 17.5114 129.64 17.6088C129.847 17.7051 130.101 17.7536 130.405 17.7536C130.681 17.7536 130.916 17.7051 131.109 17.6088C131.302 17.5114 131.468 17.3946 131.606 17.2569C131.744 17.1184 131.865 16.9381 131.976 16.7157L137.726 6.63379H143.347C143.154 6.99283 142.812 7.58775 142.315 8.41668C141.818 9.2486 141.254 10.1955 140.62 11.2603C139.984 12.3251 139.316 13.4324 138.614 14.5801C137.91 15.7267 137.25 16.7937 136.629 17.7745C136.007 18.7576 135.464 19.5802 134.997 20.2438C134.528 20.9081 134.224 21.2806 134.086 21.3635Z" fill="#00AAE8"/>
<path d="M176.802 30.6597V33.4805C176.802 33.8138 176.733 34.2068 176.595 34.6644C176.457 35.1186 176.189 35.5534 175.789 35.9692C175.391 36.3853 174.853 36.7373 174.176 37.0276C173.502 37.3184 172.626 37.4624 171.553 37.4624H162.288C161.323 37.4624 160.508 37.3187 159.848 37.0276C159.186 36.7369 158.664 36.3573 158.277 35.8863C157.89 35.4175 157.614 34.8909 157.449 34.3094C157.283 33.7298 157.203 33.1483 157.203 32.5668V10.2021C157.203 8.9574 157.49 7.97656 158.07 7.25624C158.373 6.87033 158.779 6.58555 159.291 6.40566C159.798 6.22576 160.495 6.10969 161.378 6.05371H162.079V15.4724H173.617V20.1198H162.079V32.6915H172.254V30.6604H176.802V30.6597Z" fill="#00AAE8"/>
<path d="M184.658 15.4717H196.114V20.1605H185.653V37.5046H180.856V19.3308C180.856 18.3343 181.187 17.464 181.847 16.716C182.51 15.9707 183.447 15.5545 184.658 15.4717Z" fill="#00AAE8"/>
<path d="M220.14 15.3461C220.775 15.3461 221.394 15.4995 222.001 15.8036C222.443 15.9981 222.871 16.3709 223.282 16.9233C223.503 17.2006 223.661 17.6164 223.76 18.168C223.855 18.7215 223.904 19.2474 223.904 19.7442V37.5041H204.675C203.518 37.5041 202.592 37.3126 201.905 36.9244C201.214 36.5083 200.717 36.0791 200.416 35.6361C200.085 35.1124 199.878 34.4884 199.795 33.7714V27.5438C199.795 26.4667 200.057 25.6512 200.579 25.0977C201.049 24.5453 201.628 24.1303 202.316 23.8537C203.118 23.5484 203.971 23.3816 204.881 23.3551H219.439V20.0345H203.518V15.3457L220.14 15.3461ZM219.439 32.7738V28.0014H205.09V32.7738H219.439Z" fill="#00AAE8"/>
<path d="M227.665 22.1951C227.665 19.786 228.396 18.059 229.858 17.0077C231.319 15.9574 233.276 15.4304 235.729 15.4304H246.606V5.05664H251.773V37.5044H233.083C231.596 37.5044 230.48 37.338 229.733 37.0077C228.99 36.6195 228.48 36.2049 228.204 35.7607C227.845 35.2931 227.665 34.7105 227.665 34.0181V21.8615V22.1951H227.665ZM236.93 20.5764C235.881 20.5764 235.096 20.7422 234.572 21.0732C233.992 21.4322 233.594 21.82 233.373 22.2362C233.124 22.6501 233 23.1476 233 23.7294V32.8574H246.606V20.5764H236.93Z" fill="#00AAE8"/>
<path d="M278.116 32.7741V37.504H259.961C259.55 37.504 259.183 37.476 258.865 37.42C258.551 37.3652 258.239 37.2711 257.938 37.1293C257.662 36.9938 257.404 36.8554 257.173 36.7165C256.937 36.5777 256.709 36.3698 256.488 36.0936C256.267 35.8443 256.082 35.5058 255.929 35.0762C255.778 34.6488 255.703 34.1976 255.703 33.7289V19.1653C255.703 18.4718 255.855 17.8634 256.159 17.3387C256.432 16.8677 256.888 16.4392 257.524 16.0514C258.156 15.6644 259.096 15.4707 260.335 15.4707H277.495V24.1422C277.578 25.6373 277.192 26.716 276.338 27.3799C275.458 28.0152 273.871 28.3339 271.582 28.3339H260.624V31.2376C260.624 31.5429 260.693 31.8056 260.832 32.0273C260.97 32.2218 261.163 32.3935 261.409 32.5457C261.657 32.6976 262.058 32.7734 262.61 32.7734H278.116V32.7741ZM260.624 23.3558C260.624 23.4935 260.671 23.5977 260.768 23.6652C260.865 23.7365 260.98 23.7708 261.121 23.7708H272.121C272.259 23.7708 272.375 23.7365 272.471 23.6652C272.567 23.5977 272.618 23.4935 272.618 23.3558V20.5764C272.618 20.4648 272.567 20.3685 272.471 20.2846C272.374 20.2017 272.259 20.1603 272.121 20.1603H261.121C260.98 20.1603 260.865 20.1965 260.768 20.2637C260.671 20.3331 260.624 20.423 260.624 20.5339V23.3558Z" fill="#00AAE8"/>
<path d="M90.3795 49.1104V54.9197H95.5051C95.5051 55.5291 95.4582 56.1166 95.3611 56.6828C95.2648 57.2501 95.0933 57.7487 94.8449 58.1772C94.5964 58.6049 94.2508 58.9512 93.8119 59.2151C93.3701 59.4779 92.7898 59.6085 92.0749 59.6085H90.3795V73.5492C90.3795 74.6024 90.1445 75.4302 89.6751 76.0412C89.2053 76.6507 88.4491 76.9526 87.4021 76.9526H85.251H84.6295V71.8066H85.251V59.6085H84.6295V54.9197H85.251V50.2723C85.251 48.5577 85.5825 47.2156 86.2427 46.2459C86.5737 45.7503 87.0156 45.3491 87.5653 45.0434C88.1173 44.74 89.026 44.5735 90.2966 44.5459H96.5406V49.1101H90.3795V49.1104Z" fill="white"/>
<path d="M118.705 71.185C118.705 72.6234 118.484 73.7285 118.042 74.5048C117.601 75.2498 117.104 75.8182 116.554 76.2064C115.891 76.7031 115.162 76.9659 114.361 76.9935H98.8135V54.9609H103.983V71.8889H113.701V54.9609H118.705L118.705 71.185Z" fill="white"/>
<path d="M144.095 61.102V76.9943H139.091V62.2654C139.036 61.7119 138.842 61.2409 138.51 60.8527C138.372 60.6601 137.883 60.4183 137.044 60.1276C136.202 59.8379 135.078 59.692 133.672 59.692C133.175 59.692 132.639 59.7282 132.059 59.7961C131.482 59.8659 130.944 59.9559 130.447 60.0663C129.95 60.1772 129.538 60.3138 129.207 60.4802C128.875 60.6467 128.71 60.8117 128.71 60.9781V76.9943H123.54V60.8942V54.9614L126.52 54.8785C126.82 54.7945 127.309 54.7266 127.986 54.6703C128.663 54.6146 129.386 54.568 130.156 54.5266C130.93 54.484 131.686 54.4489 132.432 54.4209C133.175 54.3952 133.768 54.3799 134.21 54.3799C135.837 54.3799 137.27 54.5814 138.51 54.9819C139.75 55.3824 140.786 55.909 141.612 56.5591C142.44 57.2089 143.059 57.9345 143.473 58.7373C143.888 59.5393 144.095 60.3295 144.095 61.102Z" fill="white"/>
<path d="M147.648 61.684C147.648 59.2748 148.381 57.5479 149.842 56.4965C151.303 55.4467 153.26 54.9197 155.713 54.9197H166.588V44.5459H171.757V76.9933H153.066C151.578 76.9933 150.464 76.8268 149.717 76.4969C148.972 76.1088 148.463 75.6937 148.188 75.2496C147.827 74.7819 147.648 74.1997 147.648 73.507V61.3507V61.684ZM156.914 60.0653C155.864 60.0653 155.079 60.231 154.556 60.5621C153.976 60.9211 153.578 61.3093 153.357 61.7251C153.107 62.139 152.984 62.6368 152.984 63.2183V72.3463H166.588V60.0653H156.914Z" fill="white"/>
<path d="M182.014 59.9411V76.953H177.052V59.6503H175.933V54.9615H177.052C177.684 54.9615 178.298 55.0933 178.89 55.3549C179.484 55.6188 180.014 55.9644 180.483 56.3928C180.951 56.822 181.323 57.3416 181.599 57.9492C181.876 58.5583 182.014 59.2219 182.014 59.9411ZM176.514 44.5463H181.517V49.4833H176.514V44.5049V44.5463Z" fill="white"/>
<path d="M206.865 61.102V76.9943H201.862V62.2654C201.806 61.7119 201.612 61.2409 201.284 60.8527C201.146 60.6601 200.655 60.4183 199.816 60.1276C198.972 59.8379 197.852 59.692 196.445 59.692C195.949 59.692 195.41 59.7282 194.833 59.7961C194.253 59.8659 193.715 59.9559 193.22 60.0663C192.723 60.1772 192.309 60.3138 191.978 60.4802C191.649 60.6467 191.483 60.8117 191.483 60.9781V76.9943H186.314V60.8942V54.9614L189.29 54.8785C189.593 54.7945 190.082 54.7266 190.759 54.6703C191.433 54.6146 192.157 54.568 192.931 54.5266C193.7 54.484 194.46 54.4489 195.203 54.4209C195.948 54.3952 196.542 54.3799 196.981 54.3799C198.608 54.3799 200.041 54.5814 201.283 54.9819C202.523 55.3824 203.556 55.909 204.384 56.5591C205.211 57.2089 205.832 57.9345 206.246 58.7373C206.658 59.5393 206.865 60.3295 206.865 61.102Z" fill="white"/>
<path d="M232.629 54.9609V81.6409C232.629 82.7759 232.214 83.7993 231.388 84.711C230.532 85.5702 229.375 85.9994 227.914 85.9994H213.026V81.1859H227.79V60.3552H215.219V71.559H227.458C227.431 72.4988 227.319 73.3837 227.128 74.2145C226.934 75.0434 226.647 75.638 226.259 75.9981C225.515 76.6602 224.371 76.9935 222.827 76.9935H210.463V60.1898C210.463 58.972 210.889 57.8232 211.745 56.7461C212.159 56.1915 212.703 55.7772 213.376 55.4999C214.053 55.2248 214.846 55.0434 215.755 54.9609H232.629Z" fill="white"/>
<path d="M0 0V76.9679H43.1266L43.1213 61.3518H33.7663V71.6479H5.3022V51.4427C6.79969 50.7735 8.53373 50.0464 8.53373 50.0464C8.1867 35.8639 16.0651 34.6987 16.0651 34.6987C16.0651 34.6987 11.6626 40.278 12.01 46.5564C12.3578 52.8356 13.6321 52.9516 12.01 56.7884C10.3876 60.6244 9.11249 61.0887 10.7353 62.4842C12.3574 63.8789 16.7595 67.2506 18.4973 68.1796C20.2361 69.1096 23.4803 68.9951 24.4065 66.9016C25.333 64.8093 24.4061 63.7632 29.8512 57.2523C35.2973 50.7425 38.193 48.1833 38.193 44.4641C38.193 44.4641 47.622 45.9958 55.8961 39.6525C61.8157 35.1148 62.1754 31.6774 62.1754 31.6774C62.1754 31.6774 55.5721 37.256 47.8094 35.3966C40.0475 33.5372 38.6214 28.8857 33.715 23.8886C28.8093 18.8896 13.7474 10.5193 13.7474 10.5193L5.30183 5.40205V5.32144H71.4028V76.9683H76.7051V0H0ZM31.3148 33.9608C32.7126 30.9082 35.4253 30.8254 35.4253 30.8254C38.2201 40.5598 54.4979 37.6726 54.4979 37.6726C47.5919 43.6124 40.1108 40.724 40.1108 40.724L41.59 42.2098C33.6983 43.0339 29.9166 37.0123 31.3148 33.9608Z" fill="white"/>
<path d="M46.306 71.6485V76.9674H55.6201V52.7148H46.306V71.6485Z" fill="#00AAE8"/>
<path d="M58.8453 71.6476V76.9664H68.2007V71.6476V42.5801H58.8453V71.6476Z" fill="#00AAE8"/>
</svg>
