<svg width="266" height="49" viewBox="0 0 266 49" fill="none" xmlns="http://www.w3.org/2000/svg">
<path d="M64.3925 20.2461L63.9625 23.0606H63.8875C63.3125 21.4251 61.6675 19.2478 58.1575 19.2478C52.4275 19.2478 46.625 24.8766 45.3375 33.6844C44.1925 41.4019 47.2 48.213 53.9325 48.213C56.44 48.213 59.3075 46.9452 60.7375 44.3083H60.8125L60.3825 47.2146H66.6825L70.6225 20.1542H64.3925V20.2461ZM62.3875 33.6844C61.9575 36.315 60.025 40.6761 56.0125 40.6761C52.145 40.6761 51.3575 36.3182 51.7125 33.8619C52.1425 30.7749 54.3625 26.8702 58.0125 26.8702C61.595 26.8702 62.8125 30.5023 62.3825 33.6844H62.3875ZM74.2775 20.2461H80.2225L79.7925 23.0606H79.8675C80.655 21.7928 82.0875 19.2478 85.8125 19.2478L84.6675 27.4248C81.66 27.5199 79.4175 28.2425 78.9375 32.4198L76.7175 47.316H70.2175L74.2775 20.2461ZM90.1075 9.62227H96.5575L93.55 30.0523H93.6925L101.067 20.2461H108.587L98.775 32.1409L104.432 47.3065H97.1975L93.0425 34.2295H92.9925L91.0575 47.3065H84.6825L90.1075 9.62227ZM118.857 19.2478C112.408 19.2478 106.607 26.3314 105.532 33.8682C104.387 41.8551 108.613 48.2161 114.772 48.2161C117.064 48.2028 119.304 47.351 121.222 45.763C123.227 44.2195 125.09 41.8583 126.598 38.8632H120.08C119.005 40.3148 117.787 41.4051 115.78 41.4051C113.272 41.4051 111.48 39.4971 111.53 36.3213H127.53C127.745 35.6875 127.817 35.2311 127.96 34.2295C129.177 25.875 125.382 19.2478 118.857 19.2478ZM112.407 30.7844C112.907 29.149 114.627 26.1571 117.995 26.1571C121.29 26.1571 122.15 29.1521 122.15 30.7844H112.407ZM35.8875 47.3065H42.2625V9.59058H36.8175L25.5 31.0158H25.425V9.59058H19.9825L0 47.3065H7.735L18.98 25.8813H19.055V47.3065H24.57L35.745 25.8813H35.8875V47.3065ZM144.187 20.2461H140.177L141.322 12.2592H135.735L135.305 15.3462C134.805 18.8864 133.085 19.9735 130.72 20.2493H130.645L129.645 26.3345H132.795L129.715 47.2526H136.09L139.17 26.3345H143.252L144.187 20.2461Z" fill="black"/>
<path d="M243.028 37.0504C240.953 43.2244 235.938 48.2193 230.208 48.2193C223.758 48.2193 219.678 41.7728 220.895 33.6908C222.04 25.7039 227.845 19.2541 234.29 19.2541C239.948 19.2541 243.79 24.0653 243.89 30.664H237.44C237.01 28.756 236.08 26.8512 233.358 26.8512C230.35 26.6705 227.843 29.8463 227.27 33.6654C226.695 37.5701 228.27 40.5652 231.353 40.5652C234.003 40.5652 235.603 38.6572 236.51 36.9331H243.028V37.0504ZM190.028 0L177.638 9.62549H181.148L169.903 31.0507H169.76V9.62549H164.243L152.993 31.0538H152.918V9.62865H146.468V47.3446H152.055L163.3 25.9194H163.375V47.3446H168.89L188.803 9.62865H191.953L190.028 0ZM202.203 47.3097H195.903L196.333 44.4034H196.258C194.753 47.034 191.958 48.3081 189.453 48.3081C182.648 48.3081 179.713 41.4939 180.858 33.7795C182.148 24.9686 188.02 19.3429 193.678 19.3429C197.188 19.3429 198.835 21.5234 199.408 23.1557H199.483L199.913 20.3412H206.213L202.203 47.3097ZM191.458 40.6857C195.398 40.6857 197.403 36.3277 197.833 33.694C198.263 30.4295 197.045 26.8797 193.463 26.8797C189.813 26.8797 187.588 30.7844 187.163 33.8714C186.733 36.4133 187.593 40.6857 191.463 40.6857H191.458ZM222.183 20.2557H218.173L219.318 12.2688H213.73L213.3 15.3558C212.8 18.896 211.08 19.9831 208.715 20.2588H208.64L207.71 26.3441H210.86L207.78 47.2622H214.155L217.235 26.3441H221.318L222.183 20.2557ZM249.043 9.63183H255.418L253.483 23.0701H253.558C254.918 20.5282 256.783 19.2573 259.575 19.2573C261.58 19.2573 263.875 20.2557 264.95 22.2524C266.31 24.883 266.168 27.2474 265.45 32.1504L263.23 47.2241H256.855L259.005 32.5181C259.22 31.2503 259.793 26.7973 256.43 26.7973C252.848 26.7973 252.275 30.8859 252.06 32.2487L249.84 47.2305H243.54L249.043 9.63183Z" fill="#00B742"/>
</svg>
