<svg width="18" height="18" viewBox="0 0 18 18" fill="none" xmlns="http://www.w3.org/2000/svg">
<path d="M11.1213 9L17.4853 15.364C18.071 15.9497 18.071 16.8995 17.4853 17.4853C16.8995 18.0711 15.9497 18.0711 15.3639 17.4853L8.99998 11.1213L2.63602 17.4853C2.05023 18.0711 1.10049 18.0711 0.5147 17.4853C-0.0710864 16.8995 -0.0710863 15.9497 0.5147 15.364L6.87866 9L0.5147 2.63604C-0.0710863 2.05025 -0.0710864 1.10051 0.5147 0.514719C1.10049 -0.0710678 2.05023 -0.0710677 2.63602 0.514719L8.99998 6.87868L15.3639 0.514719C15.9497 -0.0710671 16.8995 -0.0710678 17.4853 0.514719C18.071 1.10051 18.071 2.05025 17.4853 2.63604L11.1213 9Z" fill="#98A2B3"/>
</svg>
